/* XPM */
static char *grid_texture[] = {
/* width height num_colors chars_per_pixel */
"64 64 5 1",
"  c #000000", /* Black */
". c #FFAA00", /* Orange */
"X c #00AAFF", /* Light Blue */
"o c #AAFF00", /* Lime Green */
"+ c #FFFFFF", /* White */
/* pixels */
"++++++++++++++++++++++++++++++++++++++++++++++++++++++++++++++++",
"++++++++++++++++++++++++++++++++++++++++++++++++++++++++++++++++",
"+++++++++++++++XXXXXXXXXXXXXXXXXXXXXXXXXX+++++++++++++++++++++++",
"+++++++++++++++XXXXXXXXXXXXXXXXXXXXXXXXXX+++++++++++++++++++++++",
"+++++++++++++++XXXXXXXXXXXXXXXXXXXXXXXXXX+++++++++++++++++++++++",
"+++++++++++++++XXXXXXXXXXXXXXXXXXXXXXXXXX+++++++++++++++++++++++",
"+++++++++++++++XXXXXXXXXXXXXXXXXXXXXXXXXX+++++++++++++++++++++++",
"+++++++++++++++.........................++++++++++++++++++++++++",
"+++++++++++++++.........................++++++++++++++++++++++++",
"+++++++++++++++.........................++++++++++++++++++++++++",
"+++++++++++++++.........................++++++++++++++++++++++++",
"+++++++++++++++.........................++++++++++++++++++++++++",
"+++++++++++++++.........................++++++++++++++++++++++++",
"+++++++++++++++XXXXXXXXXXXXXXXXXXXXXXXXXX+++++++++++++++++++++++",
"+++++++++++++++XXXXXXXXXXXXXXXXXXXXXXXXXX+++++++++++++++++++++++",
"+++++++++++++++XXXXXXXXXXXXXXXXXXXXXXXXXX+++++++++++++++++++++++",
"+++++++++++++++XXXXXXXXXXXXXXXXXXXXXXXXXX+++++++++++++++++++++++",
"+++++++++++++++XXXXXXXXXXXXXXXXXXXXXXXXXX+++++++++++++++++++++++",
"+++++++++++++++.........................++++++++++++++++++++++++",
"+++++++++++++++.........................++++++++++++++++++++++++",
"+++++++++++++++.........................++++++++++++++++++++++++",
"+++++++++++++++.........................++++++++++++++++++++++++",
"+++++++++++++++.........................++++++++++++++++++++++++",
"+++++++++++++++.........................++++++++++++++++++++++++",
"+++++++++++++++XXXXXXXXXXXXXXXXXXXXXXXXXX+++++++++++++++++++++++",
"+++++++++++++++XXXXXXXXXXXXXXXXXXXXXXXXXX+++++++++++++++++++++++",
"+++++++++++++++XXXXXXXXXXXXXXXXXXXXXXXXXX+++++++++++++++++++++++",
"+++++++++++++++XXXXXXXXXXXXXXXXXXXXXXXXXX+++++++++++++++++++++++",
"+++++++++++++++XXXXXXXXXXXXXXXXXXXXXXXXXX+++++++++++++++++++++++",
"++++++++++++++++++++++++++++++++++++++++++++++++++++++++++++++++",
"++++++++++++++++++++++++++++++++++++++++++++++++++++++++++++++++",
"oooooooooooooooooooooooooooooooooooooooooooooooooooooooooooooooo",
"oooooooooooooooooooooooooooooooooooooooooooooooooooooooooooooooo",
"oooooooooooooooooooooooooooooooooooooooooooooooooooooooooooooooo",
"oooooooooooooooooooooooooooooooooooooooooooooooooooooooooooooooo",
"oooooooooooooooooooooooooooooooooooooooooooooooooooooooooooooooo",
"oooooooooooooooooooooooooooooooooooooooooooooooooooooooooooooooo",
"oooooooooooooooooooooooooooooooooooooooooooooooooooooooooooooooo",
"oooooooooooooooooooooooooooooooooooooooooooooooooooooooooooooooo",
"oooooooooooooooooooooooooooooooooooooooooooooooooooooooooooooooo",
"oooooooooooooooooooooooooooooooooooooooooooooooooooooooooooooooo",
"oooooooooooooooooooooooooooooooooooooooooooooooooooooooooooooooo",
"oooooooooooooooooooooooooooooooooooooooooooooooooooooooooooooooo",
"oooooooooooooooooooooooooooooooooooooooooooooooooooooooooooooooo",
"oooooooooooooooooooooooooooooooooooooooooooooooooooooooooooooooo",
"oooooooooooooooooooooooooooooooooooooooooooooooooooooooooooooooo",
"oooooooooooooooooooooooooooooooooooooooooooooooooooooooooooooooo",
"oooooooooooooooooooooooooooooooooooooooooooooooooooooooooooooooo",
"oooooooooooooooooooooooooooooooooooooooooooooooooooooooooooooooo",
"oooooooooooooooooooooooooooooooooooooooooooooooooooooooooooooooo",
"oooooooooooooooooooooooooooooooooooooooooooooooooooooooooooooooo",
"oooooooooooooooooooooooooooooooooooooooooooooooooooooooooooooooo",
"oooooooooooooooooooooooooooooooooooooooooooooooooooooooooooooooo",
"oooooooooooooooooooooooooooooooooooooooooooooooooooooooooooooooo",
"oooooooooooooooooooooooooooooooooooooooooooooooooooooooooooooooo",
"oooooooooooooooooooooooooooooooooooooooooooooooooooooooooooooooo",
"oooooooooooooooooooooooooooooooooooooooooooooooooooooooooooooooo",
"oooooooooooooooooooooooooooooooooooooooooooooooooooooooooooooooo",
"oooooooooooooooooooooooooooooooooooooooooooooooooooooooooooooooo",
"oooooooooooooooooooooooooooooooooooooooooooooooooooooooooooooooo",
"oooooooooooooooooooooooooooooooooooooooooooooooooooooooooooooooo",
"oooooooooooooooooooooooooooooooooooooooooooooooooooooooooooooooo",
"oooooooooooooooooooooooooooooooooooooooooooooooooooooooooooooooo",
"oooooooooooooooooooooooooooooooooooooooooooooooooooooooooooooooo",
};
